<svg width="24" height="24" viewBox="0 0 24 24" fill="none" xmlns="http://www.w3.org/2000/svg">
<path fill-rule="evenodd" clip-rule="evenodd" d="M10 2C8.34315 2 7 3.34315 7 5V6H5C3.34315 6 2 7.34315 2 9V11.382L3.44682 12.1054L3.45172 12.1078L3.47887 12.121C3.50439 12.1332 3.54461 12.1523 3.5988 12.1771C3.70722 12.2269 3.87138 12.2999 4.08547 12.3885C4.51397 12.5658 5.14061 12.8047 5.91908 13.0442C7.48062 13.5247 9.62825 14 12 14C14.3717 14 16.5194 13.5247 18.0809 13.0442C18.8594 12.8047 19.486 12.5658 19.9145 12.3885C20.1286 12.2999 20.2928 12.2269 20.4012 12.1771C20.4554 12.1523 20.4956 12.1332 20.5211 12.121L20.5483 12.1078L20.5528 12.1056L20.5538 12.1051L22 11.382V9C22 7.34315 20.6569 6 19 6H17V5C17 3.34315 15.6569 2 14 2H10ZM15 6V5C15 4.44772 14.5523 4 14 4H10C9.44772 4 9 4.44772 9 5V6H15ZM21.4472 13.8944L22 13.618V19C22 20.6569 20.6569 22 19 22H5C3.34315 22 2 20.6569 2 19V13.6181L2.55278 13.8944L2.55527 13.8957L2.55922 13.8976L2.57152 13.9037L2.61341 13.924C2.64892 13.941 2.69952 13.965 2.76447 13.9948C2.89433 14.0544 3.08173 14.1376 3.32077 14.2365C3.79852 14.4342 4.48438 14.6953 5.33091 14.9558C7.01937 15.4753 9.37174 16 12 16C14.6282 16 16.9806 15.4753 18.6691 14.9558C19.5156 14.6953 20.2015 14.4342 20.6792 14.2365C20.9183 14.1376 21.1057 14.0544 21.2355 13.9948C21.3005 13.965 21.3511 13.941 21.3866 13.924L21.4285 13.9037L21.4408 13.8976L21.4447 13.8957L21.4461 13.895C21.4461 13.895 21.4472 13.8944 21.0146 13.0292L21.4472 13.8944ZM12 10C11.4477 10 11 10.4477 11 11C11 11.5523 11.4477 12 12 12H12.01C12.5623 12 13.01 11.5523 13.01 11C13.01 10.4477 12.5623 10 12.01 10H12Z"/>
</svg>
