<svg width="24" height="24" viewBox="0 0 24 24" fill="none" xmlns="http://www.w3.org/2000/svg">
<path fill-rule="evenodd" clip-rule="evenodd" d="M5 5C5.55228 5 6 4.55228 6 4V4C6 3.44771 6.44772 3 7 3C7.55229 3 8 3.44772 8 4V4C8 4.55228 8.44772 5 9 5H10C10.5523 5 11 4.55228 11 4V4C11 3.44771 11.4477 3 12 3C12.5523 3 13 3.44772 13 4V4C13 4.55228 13.4477 5 14 5H15C15.5523 5 16 4.55228 16 4V4C16 3.44771 16.4477 3 17 3C17.5523 3 18 3.44772 18 4V4C18 4.55228 18.4477 5 19 5V5C20.1046 5 21 5.89543 21 7V7.5V8C21 8.55228 20.5523 9 20 9H4C3.44772 9 3 8.55228 3 8V7.5V7C3 5.89543 3.89543 5 5 5V5ZM3 19V12C3 11.4477 3.44772 11 4 11H20C20.5523 11 21 11.4477 21 12V19C21 20.1046 20.1046 21 19 21H5C3.89543 21 3 20.1046 3 19ZM9.01 13C9.01 12.4477 8.56229 12 8.01 12V12C7.45772 12 7.01 12.4477 7.01 13V13C7.01 13.5523 7.45772 14 8.01 14V14C8.56229 14 9.01 13.5523 9.01 13V13ZM11.01 13C11.01 12.4477 11.4577 12 12.01 12V12C12.5623 12 13.01 12.4477 13.01 13V13C13.01 13.5523 12.5623 14 12.01 14V14C11.4577 14 11.01 13.5523 11.01 13V13ZM17.01 13C17.01 12.4477 16.5623 12 16.01 12V12C15.4577 12 15.01 12.4477 15.01 13V13C15.01 13.5523 15.4577 14 16.01 14V14C16.5623 14 17.01 13.5523 17.01 13V13ZM7.01 17C7.01 16.4477 7.45772 16 8.01 16V16C8.56229 16 9.01 16.4477 9.01 17V17C9.01 17.5523 8.56229 18 8.01 18V18C7.45772 18 7.01 17.5523 7.01 17V17ZM13.01 17C13.01 16.4477 12.5623 16 12.01 16V16C11.4577 16 11.01 16.4477 11.01 17V17C11.01 17.5523 11.4577 18 12.01 18V18C12.5623 18 13.01 17.5523 13.01 17V17ZM15.01 17C15.01 16.4477 15.4577 16 16.01 16V16C16.5623 16 17.01 16.4477 17.01 17V17C17.01 17.5523 16.5623 18 16.01 18V18C15.4577 18 15.01 17.5523 15.01 17V17Z"/>
</svg>
