<svg width="24" height="24" viewBox="0 0 24 24" fill="none" xmlns="http://www.w3.org/2000/svg">
<path d="M13 6.03724C13 4.31329 11.0223 3.37152 9.71963 4.47517L5.63795 7.9333H4C2.89543 7.9333 2 8.84366 2 9.96665V14.0334C2 15.1563 2.89543 16.0667 4 16.0667H5.63795L9.71963 19.5248C11.0223 20.6285 13 19.6867 13 17.9628V6.03724Z" fill="#383838"/>
<path fill-rule="evenodd" clip-rule="evenodd" d="M14.7859 7.65801C15.1725 7.25705 15.8057 7.25065 16.2 7.64372C17.3097 8.74965 18 10.2938 18 12C18 13.6622 17.3448 15.1708 16.2848 16.2701C15.8982 16.671 15.2651 16.6774 14.8707 16.2844C14.4763 15.8913 14.47 15.2476 14.8566 14.8466C15.5649 14.1121 16 13.1087 16 12C16 10.8622 15.5417 9.835 14.8 9.09574C14.4056 8.70267 14.3993 8.05898 14.7859 7.65801Z" fill="#383838"/>
<path fill-rule="evenodd" clip-rule="evenodd" d="M17.6569 4.81101C18.0474 4.41397 18.6805 4.41397 19.0711 4.81101C20.8796 6.64972 22 9.1928 22 12C22 14.8072 20.8796 17.3503 19.0711 19.189C18.6805 19.586 18.0474 19.586 17.6569 19.189C17.2663 18.7919 17.2663 18.1482 17.6569 17.7512C19.1057 16.2782 20 14.2463 20 12C20 9.75373 19.1057 7.72178 17.6569 6.24881C17.2663 5.85177 17.2663 5.20805 17.6569 4.81101Z" fill="#383838"/>
</svg>
